<svg xmlns="http://www.w3.org/2000/svg" width="297mm" height="210mm" viewBox="0 0 1052.3622 744.09448"><g style="line-height:125%;-inkscape-font-specification:'Arial, Bold';text-align:start" font-weight="bold" font-size="38.561" font-family="Arial" letter-spacing="0" word-spacing="0"><path d="M208.337 520.053v4.915H189.79q.302-2.787 1.808-5.272 1.506-2.505 5.95-6.628 3.577-3.333 4.387-4.52 1.092-1.637 1.092-3.237 0-1.77-.96-2.71-.942-.96-2.617-.96-1.657 0-2.636.997-.98.998-1.13 3.314l-5.272-.526q.47-4.37 2.956-6.27 2.485-1.902 6.213-1.902 4.087 0 6.422 2.203t2.335 5.48q0 1.863-.678 3.558-.66 1.675-2.11 3.52-.96 1.224-3.464 3.52-2.505 2.3-3.182 3.052-.66.753-1.074 1.468h10.507zM219.125 520.995v-7.174h-7.23v-4.95h7.23v-7.174h4.82v7.173h7.25v4.95h-7.25v7.175h-4.82zM252.32 520.053v4.915h-18.546q.3-2.787 1.807-5.272 1.508-2.505 5.95-6.628 3.578-3.333 4.388-4.52 1.092-1.637 1.092-3.237 0-1.77-.96-2.71-.942-.96-2.617-.96-1.657 0-2.636.997-.98.998-1.13 3.314l-5.272-.526q.47-4.37 2.956-6.27 2.487-1.902 6.215-1.902 4.085 0 6.42 2.203t2.335 5.48q0 1.863-.678 3.558-.66 1.675-2.11 3.52-.96 1.224-3.463 3.52-2.505 2.3-3.183 3.052-.66.753-1.073 1.468h10.506zM255.878 509.604v-4.858h19.3v4.858h-19.3zm0 8.36v-4.877h19.3v4.876h-19.3zM278.51 517.87l5.272-.547q.226 1.79 1.337 2.843 1.11 1.036 2.56 1.036 1.656 0 2.805-1.337 1.148-1.356 1.148-4.067 0-2.542-1.148-3.803-1.13-1.28-2.956-1.28-2.28 0-4.087 2.014l-4.293-.622 2.71-14.366h13.99v4.952h-9.978l-.83 4.688q1.77-.885 3.617-.885 3.52 0 5.967 2.56 2.448 2.56 2.448 6.647 0 3.408-1.977 6.082-2.693 3.652-7.475 3.652-3.822 0-6.232-2.052t-2.88-5.517z"/></g><path d="M410.826 650.98a88.083 88.083 0 0 1-88.083 88.083 88.083 88.083 0 0 1-88.083-88.082 88.083 88.083 0 0 1 88.083-88.082 88.083 88.083 0 0 1 88.083 88.083z" fill="none" stroke="#c4c5c8" stroke-linecap="square"/><path d="M2.938 430.573v9.83h-9.83v.983h9.83v.814h.983v-.814h10.814v-.982H3.92v-9.83zM462.1 431.14v9.83h-9.83v.982h9.83v.814h.984v-.814h10.813v-.982h-10.813v-9.83zM497.33 431.108v9.83h-9.832v.983h9.83v.815h.985v-.814h10.813v-.98h-10.813v-9.832zM983.03 740.58h-9.832v-9.83h-.982v9.83h-.815v.983h.816v10.814h.982v-10.814h9.83zM983.03 440.158h-9.832v-9.83h-.982v9.83h-.815v.983h.816v10.815h.982V441.14h9.83zM465.964 740.097h-1.83v-9.83h-.984v9.83h-.814v.984h.814v10.814h.983V741.08h1.83zM500.053 741.246h-1.83v-9.83h-.983v9.83h-.814v.983h.814v10.812h.982V742.23h1.83z" fill="#b3b3b3" fill-rule="evenodd"/></svg>