<?xml version="1.0" encoding="UTF-8" standalone="no"?>
<!-- Created with Inkscape (http://www.inkscape.org/) -->

<svg
   xmlns:dc="http://purl.org/dc/elements/1.1/"
   xmlns:cc="http://creativecommons.org/ns#"
   xmlns:rdf="http://www.w3.org/1999/02/22-rdf-syntax-ns#"
   xmlns:svg="http://www.w3.org/2000/svg"
   xmlns="http://www.w3.org/2000/svg"
   xmlns:sodipodi="http://sodipodi.sourceforge.net/DTD/sodipodi-0.dtd"
   xmlns:inkscape="http://www.inkscape.org/namespaces/inkscape"
   width="297mm"
   height="210mm"
   viewBox="0 0 1052.3622 744.09448"
   id="svg2"
   version="1.1"
   inkscape:version="0.91 r13725"
   sodipodi:docname="base_a4.svg">
  <defs
     id="defs4" />
  <sodipodi:namedview
     id="base"
     pagecolor="#ffffff"
     bordercolor="#666666"
     borderopacity="1.0"
     inkscape:pageopacity="0.0"
     inkscape:pageshadow="2"
     inkscape:zoom="0.99718519"
     inkscape:cx="526.1811"
     inkscape:cy="372.04724"
     inkscape:document-units="mm"
     inkscape:current-layer="layer1"
     showgrid="false"
     inkscape:window-width="1737"
     inkscape:window-height="913"
     inkscape:window-x="52"
     inkscape:window-y="52"
     inkscape:window-maximized="0" />
  <metadata
     id="metadata7">
    <rdf:RDF>
      <cc:Work
         rdf:about="">
        <dc:format>image/svg+xml</dc:format>
        <dc:type
           rdf:resource="http://purl.org/dc/dcmitype/StillImage" />
        <dc:title />
      </cc:Work>
    </rdf:RDF>
  </metadata>
  <g
     inkscape:groupmode="layer"
     id="layer2"
     inkscape:label="Grid"
     style="display:none"
     sodipodi:insensitive="true">
    <rect
       transform="translate(0,-308.26772)"
       style="opacity:1;fill:none;fill-opacity:0.72318337;fill-rule:evenodd;stroke:#a5a9aa;stroke-width:1;stroke-linecap:square;stroke-linejoin:miter;stroke-miterlimit:4;stroke-dasharray:none;stroke-dashoffset:0;stroke-opacity:1"
       id="rect4136"
       width="459.62991"
       height="300.18112"
       x="3.1597931"
       y="749.62659" />
    <rect
       transform="translate(0,-308.26772)"
       style="opacity:1;fill:none;fill-opacity:0.72318337;fill-rule:evenodd;stroke:#b1a8b1;stroke-width:0.99999994;stroke-linecap:square;stroke-linejoin:miter;stroke-miterlimit:4;stroke-dasharray:none;stroke-dashoffset:0;stroke-opacity:1"
       id="rect4136-2-1"
       width="34.433071"
       height="300.18112"
       x="463.11389"
       y="749.00696" />
    <rect
       transform="translate(0,-308.26772)"
       style="opacity:1;fill:none;fill-opacity:0.72318337;fill-rule:evenodd;stroke:#a2a9a3;stroke-width:0.99999994;stroke-linecap:square;stroke-linejoin:miter;stroke-miterlimit:4;stroke-dasharray:none;stroke-dashoffset:0;stroke-opacity:1"
       id="rect4136-2"
       width="473.80313"
       height="300.18112"
       x="498.21826"
       y="749.00696" />
  </g>
  <g
     inkscape:label="Layer 1"
     inkscape:groupmode="layer"
     id="layer1"
     transform="translate(0,-308.26772)">
    <g
       style="font-style:normal;font-variant:normal;font-weight:bold;font-stretch:normal;font-size:38.56054306px;line-height:125%;font-family:Arial;-inkscape-font-specification:'Arial, Bold';text-align:start;letter-spacing:0px;word-spacing:0px;writing-mode:lr-tb;text-anchor:start;fill:#000000;fill-opacity:1;stroke:none;stroke-width:1px;stroke-linecap:butt;stroke-linejoin:miter;stroke-opacity:1"
       id="text4207">
      <path
         d="m 208.33663,828.32102 0,4.91421 -18.54597,0 q 0.30126,-2.7866 1.80753,-5.27195 1.50627,-2.50418 5.94977,-6.62759 3.57739,-3.33263 4.38701,-4.51882 1.09205,-1.63807 1.09205,-3.23848 0,-1.76987 -0.96025,-2.71129 -0.94142,-0.96025 -2.61714,-0.96025 -1.6569,0 -2.63598,0.99791 -0.97908,0.9979 -1.1297,3.3138 l -5.27195,-0.5272 q 0.47071,-4.36819 2.95606,-6.26985 2.48534,-1.90167 6.21336,-1.90167 4.08577,0 6.42049,2.20292 2.33472,2.20292 2.33472,5.47906 0,1.86401 -0.67783,3.55857 -0.65899,1.67572 -2.10878,3.52091 -0.96024,1.22384 -3.46442,3.52091 -2.50418,2.29706 -3.182,3.0502 -0.65899,0.75313 -1.07322,1.46861 l 10.50625,0 z"
         style=""
         id="path4648" />
      <path
         d="m 219.12529,829.26244 0,-7.17362 -7.2301,0 0,-4.95186 7.2301,0 0,-7.17362 4.82007,0 0,7.17362 7.24893,0 0,4.95186 -7.24893,0 0,7.17362 -4.82007,0 z"
         style=""
         id="path4650" />
      <path
         d="m 252.31975,828.32102 0,4.91421 -18.54597,0 q 0.30126,-2.7866 1.80753,-5.27195 1.50627,-2.50418 5.94977,-6.62759 3.57739,-3.33263 4.38701,-4.51882 1.09205,-1.63807 1.09205,-3.23848 0,-1.76987 -0.96025,-2.71129 -0.94142,-0.96025 -2.61714,-0.96025 -1.6569,0 -2.63598,0.99791 -0.97908,0.9979 -1.1297,3.3138 l -5.27195,-0.5272 q 0.47071,-4.36819 2.95606,-6.26985 2.48534,-1.90167 6.21336,-1.90167 4.08577,0 6.42049,2.20292 2.33472,2.20292 2.33472,5.47906 0,1.86401 -0.67783,3.55857 -0.65899,1.67572 -2.10878,3.52091 -0.96024,1.22384 -3.46442,3.52091 -2.50418,2.29706 -3.182,3.0502 -0.65899,0.75313 -1.07322,1.46861 l 10.50625,0 z"
         style=""
         id="path4652" />
      <path
         d="m 255.87831,817.87126 0,-4.85772 19.2991,0 0,4.85772 -19.2991,0 z m 0,8.35981 0,-4.87655 19.2991,0 0,4.87655 -19.2991,0 z"
         style=""
         id="path4654" />
      <path
         d="m 278.51004,826.13693 5.27195,-0.54603 q 0.22594,1.7887 1.33681,2.84309 1.11088,1.03556 2.56066,1.03556 1.6569,0 2.80543,-1.33681 1.14854,-1.35565 1.14854,-4.06694 0,-2.54183 -1.14854,-3.80333 -1.1297,-1.28033 -2.95605,-1.28033 -2.27824,0 -4.08576,2.01464 l -4.29288,-0.62134 2.71129,-14.36606 13.98949,0 0,4.95186 -9.97904,0 -0.82845,4.68827 q 1.76987,-0.88493 3.61505,-0.88493 3.52091,0 5.9686,2.56066 2.44769,2.56066 2.44769,6.64642 0,3.40794 -1.97698,6.08157 -2.69246,3.65271 -7.47487,3.65271 -3.82217,0 -6.2322,-2.0523 -2.41003,-2.05229 -2.88074,-5.51671 z"
         style=""
         id="path4656" />
    </g>
    <path
       style="opacity:1;fill:none;fill-opacity:0.72318337;fill-rule:evenodd;stroke:#c4c5c8;stroke-width:1;stroke-linecap:square;stroke-linejoin:miter;stroke-miterlimit:4;stroke-dasharray:none;stroke-dashoffset:0;stroke-opacity:1"
       d="m 410.82584,959.24847 a 88.08268,88.08268 0 0 1 -88.08268,88.08273 88.08268,88.08268 0 0 1 -88.08268,-88.08273 88.08268,88.08268 0 0 1 88.08268,-88.08268 88.08268,88.08268 0 0 1 88.08268,88.08268 z"
       id="path4295" />
    <path
       style="opacity:1;fill:#b3b3b3;fill-opacity:1;fill-rule:evenodd;stroke:none;stroke-width:1;stroke-linecap:square;stroke-linejoin:miter;stroke-miterlimit:4;stroke-dasharray:none;stroke-dashoffset:0;stroke-opacity:1"
       d="m 2.9378843,738.8404 0,9.83099 -9.83099,0 0,0.98217 9.83099,0 0,0.81432 0.98333,0 0,-0.81432 10.8131597,0 0,-0.98217 -10.8131597,0 0,-9.83099 z"
       id="rect5123-4-8"
       inkscape:connector-curvature="0"
       sodipodi:nodetypes="ccccccccccccc" />
    <path
       style="opacity:1;fill:#b3b3b3;fill-opacity:1;fill-rule:evenodd;stroke:none;stroke-width:1;stroke-linecap:square;stroke-linejoin:miter;stroke-miterlimit:4;stroke-dasharray:none;stroke-dashoffset:0;stroke-opacity:1"
       d="m 462.10067,739.40658 0,9.83099 -9.83099,0 0,0.98217 9.83099,0 0,0.81432 0.98333,0 0,-0.81432 10.81316,0 0,-0.98217 -10.81316,0 0,-9.83099 z"
       id="rect5123-4-8-0-7"
       inkscape:connector-curvature="0"
       sodipodi:nodetypes="ccccccccccccc" />
    <path
       style="opacity:1;fill:#b3b3b3;fill-opacity:1;fill-rule:evenodd;stroke:none;stroke-width:1;stroke-linecap:square;stroke-linejoin:miter;stroke-miterlimit:4;stroke-dasharray:none;stroke-dashoffset:0;stroke-opacity:1"
       d="m 497.32948,739.37547 0,9.83099 -9.83099,0 0,0.98217 9.83099,0 0,0.81432 0.98333,0 0,-0.81432 10.81316,0 0,-0.98217 -10.81316,0 0,-9.83099 z"
       id="rect5123-4-8-0-7-2"
       inkscape:connector-curvature="0"
       sodipodi:nodetypes="ccccccccccccc" />
    <path
       style="opacity:1;fill:#b3b3b3;fill-opacity:1;fill-rule:evenodd;stroke:none;stroke-width:1;stroke-linecap:square;stroke-linejoin:miter;stroke-miterlimit:4;stroke-dasharray:none;stroke-dashoffset:0;stroke-opacity:1"
       d="m 983.02889,1048.8478 -9.83097,0 0,-9.831 -0.98217,0 0,9.831 -0.81432,0 0,0.9834 0.81432,0 0,10.8131 0.98217,0 0,-10.8131 9.83097,0 z"
       id="rect5123-4-8-0-7-2-9"
       inkscape:connector-curvature="0"
       sodipodi:nodetypes="ccccccccccccc" />
    <path
       style="opacity:1;fill:#b3b3b3;fill-opacity:1;fill-rule:evenodd;stroke:none;stroke-width:1;stroke-linecap:square;stroke-linejoin:miter;stroke-miterlimit:4;stroke-dasharray:none;stroke-dashoffset:0;stroke-opacity:1"
       d="m 983.02893,748.42587 -9.83099,0 0,-9.83099 -0.98217,0 0,9.83099 -0.81432,0 0,0.98333 0.81432,0 0,10.81316 0.98217,0 0,-10.81316 9.83099,0 z"
       id="rect5123-4-8-0-7-2-9-7"
       inkscape:connector-curvature="0"
       sodipodi:nodetypes="ccccccccccccc" />
    <path
       style="opacity:1;fill:#b3b3b3;fill-opacity:1;fill-rule:evenodd;stroke:none;stroke-width:1;stroke-linecap:square;stroke-linejoin:miter;stroke-miterlimit:4;stroke-dasharray:none;stroke-dashoffset:0;stroke-opacity:1"
       d="m 465.96358,1048.365 -1.83095,0 0,-9.831 -0.98217,0 0,9.831 -0.81432,0 0,0.9834 0.81432,0 0,10.8131 0.98217,0 0,-10.8131 1.83095,0 z"
       id="rect5123-4-8-0-7-2-9-0"
       inkscape:connector-curvature="0"
       sodipodi:nodetypes="ccccccccccccc" />
    <path
       style="opacity:1;fill:#b3b3b3;fill-opacity:1;fill-rule:evenodd;stroke:none;stroke-width:1;stroke-linecap:square;stroke-linejoin:miter;stroke-miterlimit:4;stroke-dasharray:none;stroke-dashoffset:0;stroke-opacity:1"
       d="m 500.05335,1049.5133 -1.83095,0 0,-9.831 -0.98217,0 0,9.831 -0.81432,0 0,0.9834 0.81432,0 0,10.8131 0.98217,0 0,-10.8131 1.83095,0 z"
       id="rect5123-4-8-0-7-2-9-0-0"
       inkscape:connector-curvature="0"
       sodipodi:nodetypes="ccccccccccccc" />
  </g>
</svg>
