<svg xmlns="http://www.w3.org/2000/svg" viewBox="0 0 35 35"><path d="M1 1h7v7h-7zM10 1h2v1h1v2h-1v-1h-2zM14 1h4v1h-1v1h-2v1h-1zM19 1h1v1h-1zM21 1h1v1h1v2h-1v-1h-1zM27 1h7v7h-7zM2 2v5h5v-5zM18 2h1v1h-1zM28 2v5h5v-5zM3 3h3v3h-3zM9 3h1v1h2v2h-1v1h-1v2h-1zM19 3h1v1h-1zM24 3h1v1h1v1h-1v1h-1v-1h-1v-1h1zM29 3h3v3h-3zM13 4h1v5h-1v-2h-1v-1h1zM15 4h1v1h-1zM17 4h1v1h-1zM20 4h2v1h-1v1h-1zM16 5h1v1h1v2h-1v-1h-1zM18 5h1v1h-1zM21 6h1v2h1v1h-1v2h-2v-1h1zM25 6h1v4h-1v-1h-1v-1h1zM11 7h1v1h-1zM15 7h1v1h-1zM19 7h1v2h-1zM23 7h1v1h-1zM16 8h1v1h1v3h-1v1h-2v-1h1v-1h1v-1h-1v1h-1v-2h1zM1 9h1v2h1v2h-1v-1h-1zM3 9h5v1h-1v1h-1v1h-1v-1h-1v-1h-1zM12 9h1v2h-1zM23 9h1v1h-1zM27 9h5v1h2v1h-2v2h1v3h-1v-1h-1v-1h-1v-1h-1v-1h-2v-1h3v1h1v-2h-4zM9 10h1v3h2v1h-5v1h3v1h2v1h-1v1h1v1h-1v1h-1v-2h-3v-1h1v-1h-2v2h1v1h1v1h-2v1h-1v2h-2v-1h-1v4h-1v-5h2v-3h2v-4h1v-2h1v1h1v-1h-1v-1h2zM24 10h1v1h-1zM26 10h1v1h-1zM19 11h1v1h1v1h-2zM22 11h1v2h-1zM12 12h2v1h-2zM24 12h3v2h-1v-1h-2zM1 13h1v1h-1zM21 13h1v1h2v2h-1v1h-1v1h1v2h2v1h-3v-2h-1v-2h-1v-1h1v-1h-1v-1h1zM12 14h1v1h2v1h-1v1h-1v-1h-1zM15 14h4v1h-4zM1 15h2v1h1v1h-2v-1h-1zM19 15h1v1h-1zM25 15h1v1h-1zM27 15h2v1h-2zM30 15h1v1h1v1h1v5h1v1h-2v-1h-1v-1h-1v1h-2v-1h1v-1h1v-1h2v-1h-1v-1h-1zM15 16h1v3h-2v-1h1zM17 16h1v1h-1zM24 16h1v1h-1zM33 16h1v1h-1zM1 17h1v3h-1zM23 17h1v1h-1zM26 17h1v1h1v3h-1v-2h-3v-1h2zM28 17h2v1h-2zM17 18h1v2h-1v1h-1v1h1v1h2v1h-1v2h1v1h-1v1h-2v-3h1v-1h-1v-1h-1v-3h1v-1h1zM19 18h1v2h1v1h1v1h-1v1h-2v-1h1v-1h-1zM4 19v1h1v-1zM12 19h1v2h1v1h-1v1h-2v-1h1zM8 20h2v1h-1v1h-3v-1h2zM10 21h1v1h-1zM18 21h1v1h-1zM25 21h2v1h1v1h-1v1h-1v-2h-1zM9 22h1v3h-1zM22 22h3v1h-1v2h-2v1h2v2h-1v-1h-1v1h1v1h-1v2h-1v-2h-1v-1h1v-1h-1v-1h1v-3h1zM30 22h1v1h-1zM6 23h2v1h-2zM13 23h2v1h1v1h-2v-1h-1zM29 23h1v1h-1zM31 23h1v2h-1v2h-1v1h1v-1h1v1h1v2h1v1h-3v1h1v1h-2v-3h-1v1h-1v-1h-1v1h-1v-1h-1v-1h-1v-1h1v-4h1v1h1v-1h1v1h2v-1h1zM11 24h2v1h-2zM19 24h1v1h-1zM33 24h1v3h-2v-1h1zM3 25h2v1h-2zM7 25h1v1h-1zM13 25h1v1h-1zM9 26h4v3h-1v-2h-3zM26 26v3h3v-3zM1 27h7v7h-7zM14 27h1v1h-1zM27 27h1v1h-1zM2 28v5h5v-5zM9 28h1v1h1v1h-1v1h2v2h-1v1h-2v-1h1v-1h-1zM15 28h1v1h2v1h-3zM3 29h3v3h-3zM23 29h1v1h-1zM31 29v1h1v-1zM12 30h2v2h-1v-1h-1zM18 30h1v1h1v1h1v1h-2v-1h-2v1h-1v-1h-1v-1h3zM22 31h1v1h1v-1h2v1h-1v1h-3zM27 31h1v1h1v1h-1v1h-1zM12 33h1v1h-1zM15 33h1v1h-1zM21 33h1v1h-1zM25 33h1v1h-1zM32 33h1v1h-1z"/></svg>