<?xml version="1.0" encoding="UTF-8" standalone="no"?>
<!-- Created with Inkscape (http://www.inkscape.org/) -->

<svg
   xmlns:dc="http://purl.org/dc/elements/1.1/"
   xmlns:cc="http://creativecommons.org/ns#"
   xmlns:rdf="http://www.w3.org/1999/02/22-rdf-syntax-ns#"
   xmlns:svg="http://www.w3.org/2000/svg"
   xmlns="http://www.w3.org/2000/svg"
   xmlns:sodipodi="http://sodipodi.sourceforge.net/DTD/sodipodi-0.dtd"
   xmlns:inkscape="http://www.inkscape.org/namespaces/inkscape"
   id="svg2"
   sodipodi:docname="bitcoin.svg"
   inkscape:export-filename="/Users/raphael/Documents/WORK/EUX/Ecogex/Bitcoin Logo/weLoveBitcoin.png"
   viewBox="0 0 480 480"
   inkscape:export-xdpi="113"
   version="1.1"
   inkscape:export-ydpi="113"
   inkscape:version="0.48.4 r9939"
   width="100%"
   height="100%">
  <defs
     id="defs34" >
     <style type="text/css" id="style7">
       /* @import url(http://fonts.googleapis.com/css?family=Lobster+Two); */

       @font-face {
         font-family: 'Lobster Two';
         font-style: normal;
         font-weight: 400;
         src: local('Lobster Two'), local('LobsterTwo'), url(http://fonts.gstatic.com/s/lobstertwo/v7/Law3VVulBOoxyKPkrNsAaIbN6UDyHWBl620a-IRfuBk.woff) format('woff');
       }
     </style>
     </defs>
  <sodipodi:namedview
     id="base"
     fit-margin-left="0"
     inkscape:zoom="1.7895833"
     borderopacity="1.0"
     inkscape:current-layer="layer1"
     inkscape:cx="240"
     inkscape:cy="235.52968"
     inkscape:snap-grids="false"
     inkscape:window-width="1920"
     inkscape:window-maximized="1"
     showgrid="true"
     fit-margin-right="0"
     inkscape:guide-bbox="true"
     showguides="true"
     bordercolor="#666666"
     inkscape:window-x="-8"
     inkscape:window-y="-8"
     fit-margin-bottom="0"
     inkscape:snap-page="false"
     inkscape:pageopacity="0.0"
     inkscape:pageshadow="2"
     pagecolor="#ffffff"
     inkscape:snap-to-guides="true"
     inkscape:document-units="px"
     inkscape:window-height="1028"
     fit-margin-top="0">
    <inkscape:grid
       id="grid2985"
       enabled="true"
       visible="true"
       snapvisiblegridlinesonly="true"
       type="xygrid"
       empspacing="5" />
  </sodipodi:namedview>
  <g
     id="layer1"
     inkscape:label="Calque 1"
     inkscape:groupmode="layer"
     transform="translate(-193.43,-361.467)">
    <g
       id="g4094"
       inkscape:export-ydpi="113"
       inkscape:export-xdpi="113"
       inkscape:export-filename="/Users/raphael/Documents/WORK/EUX/Ecogex/Bitcoin Logo/pack/ribbonWeLoveBitcoin.png"
       transform="matrix(1.5274453,0,0,1.5274453,-1125.9801,-1240.8695)">
      <g
         id="g4547"
         inkscape:export-ydpi="113"
         inkscape:export-xdpi="113"
         inkscape:export-filename="/Users/raphael/Documents/WORK/EUX/Ecogex/Bitcoin Logo/weLoveBitcoin.png"
         transform="matrix(0.13565,0,0,0.13565,-501.94,842.38)">
        <path
           id="path4537"
           d="m 10251,3252.8 328.37,-32.199 v 247.07 L 10251,3499.87 z"
           sodipodi:nodetypes="ccccc"
           style="fill:#dbdbdb"
           inkscape:connector-curvature="0" />
        <path
           id="rect4534"
           sodipodi:nodetypes="ccccc"
           style="fill:#848484"
           inkscape:connector-curvature="0"
           d="m 10071,3156.2 508.37,64.397 v 247.07 L 10071,3403.27 z" />
        <path
           id="path4540"
           sodipodi:nodetypes="ccccc"
           style="fill:#dbdbdb"
           inkscape:connector-curvature="0"
           d="m 12199,3252.8 -328.37,-32.199 v 247.07 l 328.37,32.199 z" />
        <path
           id="path4542"
           d="m 12379,3156.2 -508.37,64.397 v 247.07 L 12379,3403.27 z"
           sodipodi:nodetypes="ccccc"
           style="fill:#848484"
           inkscape:connector-curvature="0" />
        <path
           id="rect4532"
           sodipodi:nodetypes="ccccc"
           style="fill:#dbdbdb"
           inkscape:connector-curvature="0"
           d="m 10071,3156.2 v 247.06 h 2308.4 V 3156.2 H 10071 z" />
      </g>
      <g
         id="g4577"
         inkscape:export-ydpi="113"
         inkscape:export-xdpi="113"
         inkscape:export-filename="/Users/raphael/Documents/WORK/EUX/Ecogex/Bitcoin Logo/weLoveBitcoin.png"
         transform="matrix(0.13565,0,0,0.13565,-483.97,842.38)">
        <path
           id="path4569"
           sodipodi:nodetypes="ssccscs"
           style="fill:#eb611f"
           inkscape:connector-curvature="0"
           d="m 10970,3003.4 c -87.396,0.267 -184.47,67.102 -186.89,205.17 -2.5,142.56 175.53,288.72 307.63,370.86 1.271,0.7406 2.741,0.785 4.015,-0.023 132.1,-82.142 310.13,-228.28 307.63,-370.84 -3.841,-219.07 -246,-258.77 -309.64,-137.85 -23.53,-44.712 -71.469,-67.474 -122.74,-67.317 z" />
        <g
           id="g4524"
           style="stroke:#ffffff"
           transform="matrix(0.58531,0,0,0.59937,10630,1180.9)">
          <path
             id="path4526"
             style="text-indent:0;text-transform:none;block-progression:tb;color:#000000;fill:#ffffff"
             transform="matrix(1.7085,0,0,1.6684,-18161,-1970.3)"
             inkscape:connector-curvature="0"
             d="m 11010,3117 v 18.125 196.44 h -40.813 v 36.281 H 11010 v 54.969 18.125 h 17.719 93.656 c 0,0 21.249,0.2466 43.031,-10.906 21.782,-11.1526 44.906,-37.119 44.906,-79.125 0,-39.723 -16.925,-65.716 -35.937,-79.438 13.458,-13.396 24.22,-34.76 24.218,-64.406 0,-40.998 -18.745,-66.766 -37.843,-78.5 -19.098,-11.734 -38.375,-11.563 -38.375,-11.562 h -93.656 -17.719 z m 35.437,36.25 h 75.938 c 0,0 9.989,0.1593 20.156,6.4062 10.167,6.2469 20.656,16.48 20.656,47.406 0,29.144 -9.98,37.818 -20.031,43.438 -9.292,5.1947 -18.408,5.5106 -19.781,5.5312 -0.78,0.023 -2.063,0.031 -2.063,0.031 v 0.1876 h -74.875 v -103 z m 0,138.81 h 75.438 v 0.2188 h 1.562 c 0.02,10e-5 0.01,0 0.03,0 0.159,-0.01 13.319,-0.5065 26.062,6.0625 12.821,6.6089 25.375,17.413 25.375,52.562 0,29.918 -12.008,39.89 -25.344,46.719 -13.336,6.8283 -27.187,7.0625 -27.187,7.0624 h -75.938 v -36.844 h 64.219 v -36.281 h -64.219 v -39.5 z" />
        </g>
      </g>
      <g
         id="text4573"
         inkscape:export-ydpi="113"
         style="fill:#4d4d4d"
         inkscape:export-xdpi="113"
         inkscape:export-filename="/Users/raphael/Documents/WORK/EUX/Ecogex/Bitcoin Logo/weLoveBitcoin.png">
        <path
           id="path4111"
           style="fill:#4d4d4d"
           inkscape:connector-curvature="0"
           d="m 887.66,1294.6 h -3.6244 l -2.0247,-9.5234 -2.1496,9.5234 h -3.5994 l -3.7994,-13.498 h 3.6244 l 2.1496,9.4485 2.0497,-9.4485 h 3.4994 l 2.0247,9.4485 2.0497,-9.4485 h 3.6244 L 887.66,1294.6" />
        <path
           id="path4113"
           style="fill:#4d4d4d"
           inkscape:connector-curvature="0"
           d="m 899.86,1280.9 c 0.58323,0 1.1498,0.067 1.6997,0.2 0.5499,0.1333 1.1082,0.3749 1.6747,0.7248 0.58323,0.35 1.0831,0.7999 1.4998,1.3498 0.43325,0.5333 0.78319,1.2498 1.0498,2.1497 0.26661,0.8832 0.39992,1.8997 0.39993,3.0495 -1e-5,0.1999 -0.008,0.3999 -0.025,0.5999 h -9.0485 c 0.0167,0.5165 0.0583,0.9665 0.12498,1.3497 0.0833,0.3666 0.21662,0.7332 0.39993,1.0999 0.19996,0.3499 0.48325,0.6249 0.84986,0.8248 0.38326,0.1833 0.85819,0.275 1.4248,0.275 1.3331,0 2.2246,-0.5666 2.6746,-1.6997 h 3.4494 c -0.38329,1.3331 -1.1415,2.3996 -2.2746,3.1994 -1.1332,0.7832 -2.4579,1.1748 -3.9743,1.1748 -1.9164,0 -3.4244,-0.6165 -4.5243,-1.8497 -1.0998,-1.2498 -1.6497,-2.9578 -1.6497,-5.1241 0,-2.2663 0.55824,-4.0493 1.6747,-5.3491 1.1165,-1.3165 2.6412,-1.9747 4.5742,-1.9747 m 2.6746,5.749 c -0.0833,-0.9831 -0.35828,-1.7413 -0.82486,-2.2746 -0.44993,-0.5332 -1.0832,-0.7998 -1.8997,-0.7999 -1.5331,10e-5 -2.4163,1.0249 -2.6496,3.0745 h 5.3741" />
        <path
           id="path4115"
           style="fill:#4d4d4d"
           inkscape:connector-curvature="0"
           d="m 922.15,1276.4 v 18.222 h -3.4994 V 1276.4 h 3.4994" />
        <path
           id="path4117"
           style="fill:#4d4d4d"
           inkscape:connector-curvature="0"
           d="m 932.48,1280.9 c 2.1163,0 3.7577,0.6416 4.9242,1.9247 1.1831,1.2664 1.7747,3.0411 1.7747,5.3241 -10e-6,2.1663 -0.59991,3.8827 -1.7997,5.1491 -1.1998,1.2665 -2.8246,1.8997 -4.8742,1.8997 -2.083,0 -3.7161,-0.6332 -4.8992,-1.8997 -1.1831,-1.2831 -1.7747,-3.0328 -1.7747,-5.2491 0,-2.2163 0.59157,-3.9577 1.7747,-5.2241 1.1831,-1.2831 2.8079,-1.9247 4.8742,-1.9247 m 0.025,2.8245 c -0.94985,0 -1.7164,0.4 -2.2996,1.1998 -0.58324,0.7999 -0.87486,1.8414 -0.87486,3.1245 0,1.2831 0.29162,2.3246 0.87486,3.1245 0.58323,0.7999 1.3498,1.1998 2.2996,1.1998 0.93317,0 1.6914,-0.3916 2.2746,-1.1748 0.59989,-0.7999 0.89984,-1.833 0.89985,-3.0995 -10e-6,-1.3331 -0.29163,-2.3913 -0.87486,-3.1745 -0.56658,-0.7998 -1.3331,-1.1998 -2.2996,-1.1998" />
        <path
           id="path4119"
           style="fill:#4d4d4d"
           inkscape:connector-curvature="0"
           d="m 950.13,1294.6 h -3.6744 l -4.7242,-13.498 h 3.6994 l 2.9245,9.8734 2.7246,-9.8734 h 3.6994 l -4.6492,13.498" />
        <path
           id="path4121"
           style="fill:#4d4d4d"
           inkscape:connector-curvature="0"
           d="m 963.23,1280.9 c 0.58323,0 1.1498,0.067 1.6997,0.2 0.5499,0.1333 1.1081,0.3749 1.6747,0.7248 0.58322,0.35 1.0831,0.7999 1.4998,1.3498 0.43325,0.5333 0.78319,1.2498 1.0498,2.1497 0.26661,0.8832 0.39992,1.8997 0.39993,3.0495 -1e-5,0.1999 -0.008,0.3999 -0.025,0.5999 h -9.0485 c 0.0167,0.5165 0.0583,0.9665 0.12498,1.3497 0.0833,0.3666 0.21662,0.7332 0.39993,1.0999 0.19996,0.3499 0.48325,0.6249 0.84986,0.8248 0.38326,0.1833 0.85819,0.275 1.4248,0.275 1.3331,0 2.2246,-0.5666 2.6746,-1.6997 h 3.4494 c -0.38329,1.3331 -1.1415,2.3996 -2.2746,3.1994 -1.1332,0.7832 -2.4579,1.1748 -3.9743,1.1748 -1.9164,0 -3.4244,-0.6165 -4.5243,-1.8497 -1.0998,-1.2498 -1.6497,-2.9578 -1.6497,-5.1241 0,-2.2663 0.55824,-4.0493 1.6747,-5.3491 1.1165,-1.3165 2.6412,-1.9747 4.5742,-1.9747 m 2.6746,5.749 c -0.0833,-0.9831 -0.35828,-1.7413 -0.82486,-2.2746 -0.44994,-0.5332 -1.0832,-0.7998 -1.8997,-0.7999 -1.5331,10e-5 -2.4163,1.0249 -2.6496,3.0745 h 5.3741" />
      </g>
      <g
         id="text4582"
         inkscape:export-ydpi="113"
         style="fill:#4d4d4d"
         inkscape:export-xdpi="113"
         inkscape:export-filename="/Users/raphael/Documents/WORK/EUX/Ecogex/Bitcoin Logo/weLoveBitcoin.png">
        <path
           id="path4124"
           style="fill:#4d4d4d"
           inkscape:connector-curvature="0"
           d="m 1087.3,1280.9 c 1.6164,0 2.9662,0.6749 4.0493,2.0247 1.0832,1.3331 1.6247,3.0411 1.6248,5.1241 -10e-5,2.033 -0.5416,3.7327 -1.6248,5.0992 -1.0831,1.3664 -2.4329,2.0496 -4.0493,2.0496 -1.6497,0 -2.8912,-0.6499 -3.7244,-1.9496 v 1.3747 h -3.4994 v -18.222 h 3.4994 v 6.474 c 0.8332,-1.3165 2.0747,-1.9747 3.7244,-1.9747 m 1.3498,4.1243 c -0.55,-0.7999 -1.2582,-1.1998 -2.1247,-1.1998 -0.8665,0 -1.5747,0.3916 -2.1246,1.1748 -0.5499,0.7666 -0.8249,1.7664 -0.8249,2.9995 0,1.2831 0.2666,2.3163 0.7999,3.0995 0.5499,0.7832 1.2664,1.1748 2.1496,1.1748 0.8665,0 1.5747,-0.3916 2.1247,-1.1748 0.5499,-0.7832 0.8248,-1.7914 0.8248,-3.0245 0,-1.2498 -0.2749,-2.2663 -0.8248,-3.0495" />
        <path
           id="path4126"
           style="fill:#4d4d4d"
           inkscape:connector-curvature="0"
           d="m 1100.2,1281.2 v 13.498 h -3.4995 V 1281.2 h 3.4995 m 0,-4.7242 v 3.1245 h -3.4995 v -3.1245 h 3.4995" />
        <path
           id="path4128"
           style="fill:#4d4d4d"
           inkscape:connector-curvature="0"
           d="m 1110.4,1281.4 v 2.3246 h -1.9497 v 7.3488 c 0,0.5999 0.075,0.9998 0.225,1.1998 0.15,0.1833 0.4583,0.275 0.9249,0.275 0.1832,0 0.4499,-0.025 0.7998,-0.075 v 2.4496 c -0.5666,0.1833 -1.2414,0.2749 -2.0246,0.2749 -2.283,0 -3.4245,-1.0581 -3.4245,-3.1744 v -8.2987 h -1.7247 V 1281.4 h 1.7247 v -3.6244 h 3.4994 v 3.6244 h 1.9497" />
        <path
           id="path4131"
           style="fill:#4d4d4d"
           inkscape:connector-curvature="0"
           d="m 1119.3,1283.8 c -1.8997,0 -2.8495,1.4748 -2.8495,4.4243 0,1.3164 0.2499,2.3496 0.7499,3.0995 0.5165,0.7499 1.2164,1.1248 2.0996,1.1248 0.6832,0 1.2165,-0.1833 1.5997,-0.5499 0.3833,-0.3833 0.6833,-1.0082 0.8999,-1.8747 h 3.3494 c -0.1666,1.6164 -0.7832,2.8995 -1.8497,3.8494 -1.0498,0.9331 -2.3912,1.3997 -4.0243,1.3997 -1.9997,0 -3.5577,-0.6165 -4.6742,-1.8497 -1.0998,-1.2331 -1.6497,-2.9661 -1.6497,-5.1991 0,-2.2996 0.5582,-4.0827 1.6747,-5.3491 1.1165,-1.2665 2.6829,-1.8997 4.6992,-1.8997 1.6831,0 3.0412,0.4666 4.0743,1.3998 1.0498,0.9331 1.6331,2.2246 1.7497,3.8743 h -3.3494 c -0.2,-0.8832 -0.4916,-1.5081 -0.8749,-1.8747 -0.3666,-0.3832 -0.9082,-0.5749 -1.6247,-0.5749" />
        <path
           id="path4133"
           style="fill:#4d4d4d"
           inkscape:connector-curvature="0"
           d="m 1135,1280.9 c 2.1163,0 3.7577,0.6416 4.9242,1.9247 1.1831,1.2664 1.7747,3.0411 1.7747,5.3241 0,2.1663 -0.5999,3.8827 -1.7997,5.1491 -1.1998,1.2665 -2.8246,1.8997 -4.8742,1.8997 -2.083,0 -3.7161,-0.6332 -4.8992,-1.8997 -1.1832,-1.2831 -1.7747,-3.0328 -1.7747,-5.2491 0,-2.2163 0.5915,-3.9577 1.7747,-5.2241 1.1831,-1.2831 2.8078,-1.9247 4.8742,-1.9247 m 0.025,2.8245 c -0.9499,0 -1.7164,0.4 -2.2996,1.1998 -0.5833,0.7999 -0.8749,1.8414 -0.8749,3.1245 0,1.2831 0.2916,2.3246 0.8749,3.1245 0.5832,0.7999 1.3497,1.1998 2.2996,1.1998 0.9331,0 1.6914,-0.3916 2.2746,-1.1748 0.5999,-0.7999 0.8998,-1.833 0.8999,-3.0995 -10e-5,-1.3331 -0.2917,-2.3913 -0.8749,-3.1745 -0.5666,-0.7998 -1.3331,-1.1998 -2.2996,-1.1998" />
        <path
           id="path4135"
           style="fill:#4d4d4d"
           inkscape:connector-curvature="0"
           d="m 1148.7,1281.2 v 13.498 h -3.4994 V 1281.2 h 3.4994 m 0,-4.7242 v 3.1245 h -3.4994 v -3.1245 h 3.4994" />
        <path
           id="path4137"
           style="fill:#4d4d4d"
           inkscape:connector-curvature="0"
           d="m 1153.6,1281.2 h 3.4994 v 1.9497 c 0.9665,-1.4497 2.3163,-2.1746 4.0494,-2.1746 1.4331,0 2.5412,0.4083 3.3244,1.2248 0.7999,0.8165 1.1998,1.9663 1.1998,3.4494 v 9.0485 h -3.4994 v -8.3236 c 0,-1.6164 -0.7499,-2.4246 -2.2496,-2.4246 -0.8499,0 -1.5331,0.2416 -2.0497,0.7249 -0.5166,0.4832 -0.7749,1.1248 -0.7749,1.9247 v 8.0986 H 1153.6 v -13.498" />
      </g>
    </g>
    <text
       xml:space="preserve"
       style="font-size:33.39173889px;font-style:normal;font-weight:normal;line-height:125%;letter-spacing:0px;word-spacing:0px;fill:#ff0000;fill-opacity:1;stroke:none;font-family:Lobster Two"
       x="318.87454"
       y="812.2326"
       id="text3011"
       sodipodi:linespacing="125%"><tspan
         sodipodi:role="line"
         id="tspan3013"
         x="318.87454"
         y="812.2326">ASK</tspan></text>
    <text
       xml:space="preserve"
       style="font-size:33.39173889px;font-style:normal;font-weight:normal;line-height:125%;letter-spacing:0px;word-spacing:0px;fill:#0000ff;fill-opacity:1;stroke:none;font-family:Lobster Two"
       x="473.11276"
       y="812.2326"
       id="text3011-1"
       sodipodi:linespacing="125%"><tspan
         sodipodi:role="line"
         id="tspan3013-7"
         x="473.11276"
         y="812.2326">BID</tspan></text>
    <text
       xml:space="preserve"
       style="font-size:33.39173889px;font-style:normal;font-weight:normal;line-height:125%;letter-spacing:0px;word-spacing:0px;fill:#0000ff;fill-opacity:1;stroke:none;font-family:Lobster Two"
       x="542.45715"
       y="812.2326"
       id="text3011-1-4"
       sodipodi:linespacing="125%"><tspan
         sodipodi:role="line"
         id="tspan3013-7-0"
         x="542.45715"
         y="812.2326">${{data.bid}}</tspan></text>
    <text
       xml:space="preserve"
       style="font-size:33.39173889px;font-style:normal;font-weight:normal;line-height:125%;letter-spacing:0px;word-spacing:0px;fill:#ff0000;fill-opacity:1;stroke:none;font-family:Lobster Two"
       x="197.71678"
       y="810.79742"
       id="text3011-9"
       sodipodi:linespacing="125%"><tspan
         sodipodi:role="line"
         id="tspan3013-4"
         x="197.71678"
         y="810.79742">${{data.ask}}</tspan></text>
    <g
       id="text3078"
       style="fill:#ff0000"
       transform="matrix(0.82286602,0,0,0.82286602,62.811483,15.455463)">
      <path
         d="m 229.06767,640.31269 0,-56.58767 37.05741,0 0,-19.53026 -37.05741,0 0,-49.24296 -20.69873,0 0,120.8539 c -0.1287,3.99927 -1.08156,7.26822 -2.8586,9.80687 -1.77708,2.53866 -3.6063,4.38875 -5.48767,5.55026 1.60316,1.92312 3.3211,4.5035 5.15382,7.74116 1.83268,3.23764 3.17504,6.11015 4.02707,8.61752 1.50024,-0.99847 3.9526,-2.09894 7.35707,-3.30142 3.40442,-1.20249 9.10873,-2.85937 17.11294,-4.97066 8.00412,-2.1113 19.6559,-5.0294 34.95539,-8.7543 -0.35479,-2.45867 -0.68864,-5.42854 -1.00155,-8.90964 -0.31307,-3.48107 -0.47999,-6.74306 -0.50078,-9.78599 z m 74.44868,8.17933 c -3.07433,0.14259 -5.06352,-0.47642 -5.96759,-1.85704 -0.90428,-1.38061 -1.30769,-4.3783 -1.2102,-8.9931 l 0,-53.91686 40.72977,0 0,-19.53026 -40.72977,0 0,-49.57681 -20.53181,0 0,122.69008 c -0.17397,11.56306 1.55092,19.56851 5.17468,24.01637 3.62357,4.44786 10.18929,6.5692 19.69719,6.36403 l 22.70183,0 c 8.72866,0.14605 14.89098,-2.81687 18.48698,-8.88877 3.59569,-6.07191 5.83527,-16.12914 6.71874,-30.17174 -2.95961,-0.71636 -6.17987,-1.87093 -9.6608,-3.4637 -3.48124,-1.59272 -6.49284,-3.33152 -9.03483,-5.21642 -0.40007,11.04839 -1.14428,18.62262 -2.23263,22.7227 -1.08863,4.10011 -3.12651,6.04062 -6.11363,5.82152 z"
         style="fill:#ff0000"
         id="path3125"
         inkscape:connector-curvature="0" />
    </g>
    <g
       id="text3078-8"
       style="fill:#ff0000"
       transform="matrix(0.84946809,0,0,0.84946809,68.979809,-4.2321573)">
      <path
         d="m 445.86438,512.66756 -25.20571,0 0,18.36178 72.61249,0 0,-18.36178 -27.70959,0 0,-14.18865 33.38505,0 0,-18.02793 -33.38505,0 0,-14.85635 -19.69719,0 0,14.85635 -31.38195,0 0,18.02793 31.38195,0 z m -36.55663,33.71891 -13.8548,3.17158 0,-32.55043 14.35557,0 0,-18.86256 -14.35557,0 0,-32.3835 -18.86256,0 0,32.3835 -6.67701,0 c 0.41728,-2.91412 0.79287,-5.80749 1.12675,-8.68011 0.33382,-2.87238 0.62594,-5.76575 0.87635,-8.68012 l -15.02327,-2.33695 c -0.74075,10.37383 -1.93009,20.46584 -3.56803,30.27607 -1.63797,9.81043 -3.78713,18.19146 -6.44749,25.14312 1.98223,0.63996 4.36092,1.48849 7.13606,2.54561 2.77511,1.05727 5.07033,1.98927 6.88566,2.796 1.16846,-3.0324 2.25347,-6.44046 3.25505,-10.22417 1.00153,-3.78356 1.91962,-7.77585 2.75426,-11.97689 l 9.68167,0 0,36.72356 c -5.04256,1.01552 -9.85557,1.98924 -14.43904,2.92119 -4.5835,0.93205 -8.72881,1.73886 -12.43593,2.42042 l 4.84083,20.19796 22.03414,-5.67546 0,47.90756 18.86256,0 0,-52.58147 16.02482,-4.17313 z m 12.18554,27.54267 c 3.71401,4.15925 7.34463,8.65232 10.89188,13.47922 3.54706,4.82694 6.2596,9.06962 8.1376,12.72805 l 15.69098,-10.18244 c -2.13884,-3.65147 -5.0809,-7.78287 -8.82617,-12.39421 -3.74549,-4.61128 -7.48044,-8.82614 -11.20486,-12.64458 z m 81.12569,-27.7096 -16.02483,0 0,-11.68476 -19.69718,0 0,11.68476 -53.08224,0 0,18.19486 53.08224,0 0,34.38661 c 0.0242,1.06763 -0.19139,1.81184 -0.64684,2.23262 -0.45569,0.4208 -1.29727,0.6225 -2.52474,0.60511 -1.49202,0.007 -4.10022,-0.007 -7.82462,-0.0417 -3.72463,-0.0348 -7.62651,-0.13214 -11.70564,-0.29211 1.29357,2.93858 2.50378,6.20057 3.63063,9.78599 1.12664,3.58541 1.91953,6.88914 2.37868,9.91119 6.09613,0.0417 11.47251,-0.16694 16.12915,-0.62597 4.65639,-0.45906 8.57218,-1.41888 11.74737,-2.87946 3.27577,-1.53016 5.52926,-3.72801 6.76047,-6.59355 1.23093,-2.86555 1.81517,-6.73265 1.75272,-11.60131 l 0,-34.88738 16.02483,0 z"
         style="fill:#ff0000"
         id="path3128"
         inkscape:connector-curvature="0" />
    </g>
    <g
       id="text3078-8-2"
       style="fill:#ff0000"
       transform="matrix(0.90322953,0,0,0.90322953,60.083841,-43.451269)">
      <path
         d="m 642.71416,615.06074 -52.41454,0 0,-8.84704 -19.69718,0 0,8.84704 -48.90911,0 0,54.08379 19.19641,0 0,-37.55818 29.7127,0 0,45.40367 19.69718,0 0,-45.40367 32.88428,0 0,18.86255 c 0.0138,0.98418 -0.26442,1.68665 -0.83462,2.10743 -0.57046,0.4208 -1.51637,0.66424 -2.83773,0.7303 -1.29032,0.007 -3.92635,-0.007 -7.90809,-0.0417 -3.98198,-0.0348 -8.0786,-0.13214 -12.28987,-0.29212 1.29356,2.34044 2.5455,5.00429 3.75581,7.99155 1.2101,2.98727 2.12819,5.77631 2.75427,8.36713 6.16569,0.0556 11.56989,-0.0557 16.21262,-0.33385 4.64248,-0.27822 8.58609,-1.0572 11.83083,-2.33695 3.36271,-1.28325 5.69271,-3.18202 6.98999,-5.69633 1.29701,-2.51431 1.91602,-5.95714 1.85705,-10.3285 z m -87.8027,-49.5768 c 1.61355,4.56271 2.97678,9.37572 4.08967,14.43903 1.11277,5.06348 1.80829,9.54264 2.08657,13.43749 l 8.68011,-2.67081 c -0.36869,-3.88789 -1.13377,-8.33923 -2.29522,-13.35402 -1.16159,-5.01462 -2.5109,-9.79981 -4.04794,-14.35557 z m 75.45023,-13.68788 c -1.16166,3.16473 -2.51097,6.14156 -4.04794,8.9305 -1.53723,2.78915 -3.30386,5.43213 -5.29988,7.92896 -2.07625,-2.66375 -3.93329,-5.3902 -5.57113,-8.17934 -1.63807,-2.78894 -3.11953,-5.68231 -4.44438,-8.68012 z m 26.54112,0 0,-14.85635 -40.89669,0 c 0.84493,-2.00645 1.65869,-4.04433 2.44127,-6.11364 0.78234,-2.06904 1.47091,-4.14865 2.06571,-6.23883 l -16.52561,-3.50543 c -1.70413,6.47197 -4.22192,12.51604 -7.55337,18.13226 -3.33164,5.61645 -7.26829,10.53379 -11.80996,14.75202 l 0,-7.01086 -10.01551,0 c 1.77002,-2.36813 3.73834,-5.0598 5.90497,-8.07501 2.16647,-3.01496 4.42692,-6.16568 6.78135,-9.45214 l -16.02483,-5.50854 c -1.14073,2.96306 -2.5735,6.25983 -4.29833,9.89032 -1.72496,3.63075 -3.40812,6.84406 -5.04949,9.63994 l 8.51319,3.50543 -14.02172,0 0,-25.87342 -17.1933,0 0,25.87342 -14.68943,0 10.51629,-4.84083 c -0.89378,-2.51767 -2.27787,-5.41104 -4.15226,-8.68012 -1.87447,-3.26882 -3.88452,-6.32911 -6.03018,-9.18089 l -13.68787,5.84239 c 1.79095,2.65354 3.46716,5.48431 5.02862,8.49232 1.56143,3.00826 2.77859,5.7973 3.65149,8.36713 l -8.34626,0 0,60.26003 14.02172,0 0,-17.69408 c 1.30755,0.6782 2.65686,1.36677 4.04794,2.0657 1.39101,0.69906 2.48994,1.3459 3.29678,1.9405 1.52315,-3.60621 2.90028,-7.91149 4.1314,-12.91584 1.23103,-5.0042 2.19085,-10.10237 2.87946,-15.29453 l -9.68167,-2.0031 c -0.40344,3.88111 -0.97376,7.76211 -1.71099,11.64304 -0.73728,3.88109 -1.72492,7.51171 -2.96292,10.89187 l 0,-27.20882 16.19176,0 0,47.07293 12.18554,0 0,-47.07293 16.5256,0 0,44.56905 14.18865,0 0,-43.06672 c 1.62048,1.63458 3.17845,3.28992 4.67391,4.96603 1.49528,1.6763 2.7194,3.08125 3.67236,4.21486 1.25184,-0.92495 2.46205,-1.95433 3.63062,-3.08812 1.16838,-1.13361 2.29512,-2.3299 3.38024,-3.58889 1.49179,2.92129 3.05671,5.75901 4.69477,8.51319 1.63785,2.75435 3.41143,5.42515 5.32075,8.01241 -3.5125,2.6535 -7.3796,4.9835 -11.60131,6.99 -4.22192,2.00665 -8.75672,3.79414 -13.60441,5.36247 1.60309,1.92318 3.32102,4.37837 5.15382,7.36558 1.83261,2.98733 3.17496,5.48425 4.02707,7.49077 5.18153,-1.91263 10.05018,-4.09657 14.60596,-6.55182 4.55555,-2.45513 8.7565,-5.22331 12.60286,-8.30453 3.99912,3.60287 8.31135,6.83009 12.93671,9.68167 4.62507,2.85169 9.60501,5.24429 14.93981,7.17778 1.15789,-2.11781 2.72281,-4.47562 4.69477,-7.07346 1.97165,-2.59771 3.91215,-4.74687 5.82152,-6.44749 -5.09833,-1.58919 -9.88351,-3.58534 -14.35557,-5.98844 -4.47235,-2.40295 -8.58984,-5.19199 -12.35247,-8.36713 6.64905,-7.9845 11.87937,-17.55487 15.69097,-28.71115 z"
         style="fill:#ff0000"
         id="path3131"
         inkscape:connector-curvature="0" />
    </g>
    <text
       xml:space="preserve"
       style="font-size:72.04217529px;font-style:normal;font-weight:normal;line-height:125%;letter-spacing:0px;word-spacing:0px;fill:#ff0000;fill-opacity:1;stroke:none;font-family:Lobster Two"
       x="346.51373"
       y="641.47198"
       id="text3023"
       sodipodi:linespacing="125%"><tspan
         sodipodi:role="line"
         id="tspan3025"
         x="346.51373"
         y="641.47198">${{data.last}}</tspan></text>
  </g>
  <metadata
     id="metadata32">
    <rdf:RDF>
      <cc:Work>
        <dc:format>image/svg+xml</dc:format>
        <dc:type
           rdf:resource="http://purl.org/dc/dcmitype/StillImage" />
        <cc:license
           rdf:resource="http://creativecommons.org/licenses/publicdomain/" />
        <dc:publisher>
          <cc:Agent
             rdf:about="http://openclipart.org/">
            <dc:title>Openclipart</dc:title>
          </cc:Agent>
        </dc:publisher>
        <dc:title />
        <dc:date>2011-06-04T10:39:18</dc:date>
        <dc:description>Project page http://www.ecogex.com/bitcoin/</dc:description>
        <dc:source>https://openclipart.org/detail/142303/ribbonwelovebitcoin-by-ecogex</dc:source>
        <dc:creator>
          <cc:Agent>
            <dc:title>ecogex</dc:title>
          </cc:Agent>
        </dc:creator>
        <dc:subject>
          <rdf:Bag>
            <rdf:li>bitcoin</rdf:li>
            <rdf:li>ecogex</rdf:li>
            <rdf:li>free</rdf:li>
            <rdf:li>libre</rdf:li>
          </rdf:Bag>
        </dc:subject>
      </cc:Work>
      <cc:License
         rdf:about="http://creativecommons.org/licenses/publicdomain/">
        <cc:permits
           rdf:resource="http://creativecommons.org/ns#Reproduction" />
        <cc:permits
           rdf:resource="http://creativecommons.org/ns#Distribution" />
        <cc:permits
           rdf:resource="http://creativecommons.org/ns#DerivativeWorks" />
      </cc:License>
    </rdf:RDF>
  </metadata>
</svg>
